<mxfile host="app.diagrams.net" modified="2023-04-27T08:47:42.632Z" agent="Mozilla/5.0 (Windows NT 10.0; Win64; x64) AppleWebKit/537.36 (KHTML, like Gecko) Chrome/112.0.0.0 Safari/537.36" etag="Kgz_lcR1KBQcqk79LUPJ" version="21.2.1" type="device">
  <diagram name="페이지-1" id="OsXEakf1ovo5sV9m-Xxc">
    <mxGraphModel dx="1552" dy="1901" grid="1" gridSize="10" guides="1" tooltips="1" connect="1" arrows="1" fold="1" page="1" pageScale="1" pageWidth="827" pageHeight="1169" math="0" shadow="0">
      <root>
        <mxCell id="0" />
        <mxCell id="1" parent="0" />
        <mxCell id="JmuK0l8G9QWru2d-qfCV-84" style="rounded=0;orthogonalLoop=1;jettySize=auto;html=1;exitX=1;exitY=0.5;exitDx=0;exitDy=0;entryX=0;entryY=0.5;entryDx=0;entryDy=0;endArrow=ERzeroToMany;endFill=0;startArrow=none;startFill=0;" edge="1" parent="1" source="OexlrTjWWQdYPRo8zZzN-1" target="JmuK0l8G9QWru2d-qfCV-57">
          <mxGeometry relative="1" as="geometry" />
        </mxCell>
        <mxCell id="OexlrTjWWQdYPRo8zZzN-1" value="&lt;b&gt;회원&lt;/b&gt;" style="whiteSpace=wrap;html=1;aspect=fixed;" parent="1" vertex="1">
          <mxGeometry x="-360" y="320" width="70" height="70" as="geometry" />
        </mxCell>
        <mxCell id="JmuK0l8G9QWru2d-qfCV-89" style="rounded=0;orthogonalLoop=1;jettySize=auto;html=1;exitX=0.5;exitY=1;exitDx=0;exitDy=0;entryX=0.5;entryY=0;entryDx=0;entryDy=0;endArrow=ERone;endFill=0;startArrow=ERoneToMany;startFill=0;" edge="1" parent="1" source="OexlrTjWWQdYPRo8zZzN-4" target="OexlrTjWWQdYPRo8zZzN-1">
          <mxGeometry relative="1" as="geometry" />
        </mxCell>
        <mxCell id="JmuK0l8G9QWru2d-qfCV-108" style="rounded=0;orthogonalLoop=1;jettySize=auto;html=1;exitX=1;exitY=0.5;exitDx=0;exitDy=0;entryX=0;entryY=0.5;entryDx=0;entryDy=0;endArrow=ERone;endFill=0;startArrow=none;startFill=0;" edge="1" parent="1" source="OexlrTjWWQdYPRo8zZzN-4" target="JmuK0l8G9QWru2d-qfCV-107">
          <mxGeometry relative="1" as="geometry">
            <Array as="points">
              <mxPoint x="-220" y="65" />
            </Array>
          </mxGeometry>
        </mxCell>
        <mxCell id="OexlrTjWWQdYPRo8zZzN-4" value="&lt;b&gt;주문내역&lt;/b&gt;" style="whiteSpace=wrap;html=1;aspect=fixed;" parent="1" vertex="1">
          <mxGeometry x="-360" y="30" width="70" height="70" as="geometry" />
        </mxCell>
        <mxCell id="OexlrTjWWQdYPRo8zZzN-7" value="아이디" style="ellipse;whiteSpace=wrap;html=1;fontStyle=4" parent="1" vertex="1">
          <mxGeometry x="-520" y="330" width="70" height="50" as="geometry" />
        </mxCell>
        <mxCell id="OexlrTjWWQdYPRo8zZzN-9" value="이름" style="ellipse;whiteSpace=wrap;html=1;" parent="1" vertex="1">
          <mxGeometry x="-500" y="230" width="70" height="50" as="geometry" />
        </mxCell>
        <mxCell id="OexlrTjWWQdYPRo8zZzN-10" value="전화번호" style="ellipse;whiteSpace=wrap;html=1;" parent="1" vertex="1">
          <mxGeometry x="-510" y="280" width="70" height="50" as="geometry" />
        </mxCell>
        <mxCell id="OexlrTjWWQdYPRo8zZzN-11" value="포인트" style="ellipse;whiteSpace=wrap;html=1;" parent="1" vertex="1">
          <mxGeometry x="-510" y="380" width="70" height="50" as="geometry" />
        </mxCell>
        <mxCell id="JmuK0l8G9QWru2d-qfCV-1" value="비밀번호" style="ellipse;whiteSpace=wrap;html=1;" vertex="1" parent="1">
          <mxGeometry x="-490" y="430" width="70" height="50" as="geometry" />
        </mxCell>
        <mxCell id="JmuK0l8G9QWru2d-qfCV-21" value="주문한메뉴" style="ellipse;whiteSpace=wrap;html=1;" vertex="1" parent="1">
          <mxGeometry x="-365" y="-60" width="70" height="50" as="geometry" />
        </mxCell>
        <mxCell id="JmuK0l8G9QWru2d-qfCV-22" value="주문한사람" style="ellipse;whiteSpace=wrap;html=1;" vertex="1" parent="1">
          <mxGeometry x="-300" y="-40" width="70" height="50" as="geometry" />
        </mxCell>
        <mxCell id="JmuK0l8G9QWru2d-qfCV-23" value="가격" style="ellipse;whiteSpace=wrap;html=1;" vertex="1" parent="1">
          <mxGeometry x="-430" y="-40" width="70" height="50" as="geometry" />
        </mxCell>
        <mxCell id="JmuK0l8G9QWru2d-qfCV-70" style="rounded=0;orthogonalLoop=1;jettySize=auto;html=1;exitX=0.5;exitY=0;exitDx=0;exitDy=0;entryX=0.5;entryY=1;entryDx=0;entryDy=0;endArrow=none;endFill=0;startArrow=ERone;startFill=0;" edge="1" parent="1" source="JmuK0l8G9QWru2d-qfCV-55" target="OexlrTjWWQdYPRo8zZzN-1">
          <mxGeometry relative="1" as="geometry" />
        </mxCell>
        <mxCell id="JmuK0l8G9QWru2d-qfCV-71" style="rounded=0;orthogonalLoop=1;jettySize=auto;html=1;exitX=0.5;exitY=1;exitDx=0;exitDy=0;entryX=0.5;entryY=0;entryDx=0;entryDy=0;endArrow=none;endFill=0;startArrow=ERone;startFill=0;" edge="1" parent="1" source="JmuK0l8G9QWru2d-qfCV-55" target="JmuK0l8G9QWru2d-qfCV-59">
          <mxGeometry relative="1" as="geometry" />
        </mxCell>
        <mxCell id="JmuK0l8G9QWru2d-qfCV-55" value="포함" style="rhombus;whiteSpace=wrap;html=1;" vertex="1" parent="1">
          <mxGeometry x="-355" y="530" width="60" height="60" as="geometry" />
        </mxCell>
        <mxCell id="JmuK0l8G9QWru2d-qfCV-85" style="rounded=0;orthogonalLoop=1;jettySize=auto;html=1;exitX=1;exitY=0.5;exitDx=0;exitDy=0;entryX=0;entryY=0.5;entryDx=0;entryDy=0;endArrow=none;endFill=0;startArrow=ERone;startFill=0;" edge="1" parent="1" source="JmuK0l8G9QWru2d-qfCV-57" target="JmuK0l8G9QWru2d-qfCV-78">
          <mxGeometry relative="1" as="geometry" />
        </mxCell>
        <mxCell id="JmuK0l8G9QWru2d-qfCV-57" value="주문" style="rhombus;whiteSpace=wrap;html=1;" vertex="1" parent="1">
          <mxGeometry x="-180" y="325" width="60" height="60" as="geometry" />
        </mxCell>
        <mxCell id="JmuK0l8G9QWru2d-qfCV-59" value="로그인정보" style="whiteSpace=wrap;html=1;aspect=fixed;" vertex="1" parent="1">
          <mxGeometry x="-360" y="720" width="70" height="70" as="geometry" />
        </mxCell>
        <mxCell id="JmuK0l8G9QWru2d-qfCV-66" value="상품조회" style="ellipse;whiteSpace=wrap;html=1;" vertex="1" parent="1">
          <mxGeometry x="-290" y="770" width="70" height="50" as="geometry" />
        </mxCell>
        <mxCell id="JmuK0l8G9QWru2d-qfCV-67" value="포인트조회" style="ellipse;whiteSpace=wrap;html=1;" vertex="1" parent="1">
          <mxGeometry x="-430" y="770" width="70" height="50" as="geometry" />
        </mxCell>
        <mxCell id="JmuK0l8G9QWru2d-qfCV-86" style="rounded=0;orthogonalLoop=1;jettySize=auto;html=1;exitX=0.5;exitY=1;exitDx=0;exitDy=0;entryX=0.5;entryY=0;entryDx=0;entryDy=0;endArrow=ERone;endFill=0;startArrow=none;startFill=0;" edge="1" parent="1" source="JmuK0l8G9QWru2d-qfCV-72" target="JmuK0l8G9QWru2d-qfCV-79">
          <mxGeometry relative="1" as="geometry" />
        </mxCell>
        <mxCell id="JmuK0l8G9QWru2d-qfCV-72" value="&lt;b&gt;결제&lt;/b&gt;" style="whiteSpace=wrap;html=1;aspect=fixed;" vertex="1" parent="1">
          <mxGeometry x="-30" y="30" width="70" height="70" as="geometry" />
        </mxCell>
        <mxCell id="JmuK0l8G9QWru2d-qfCV-73" value="카드" style="ellipse;whiteSpace=wrap;html=1;" vertex="1" parent="1">
          <mxGeometry x="-70" y="-60" width="70" height="50" as="geometry" />
        </mxCell>
        <mxCell id="JmuK0l8G9QWru2d-qfCV-75" value="포인트" style="ellipse;whiteSpace=wrap;html=1;" vertex="1" parent="1">
          <mxGeometry y="-60" width="70" height="50" as="geometry" />
        </mxCell>
        <mxCell id="JmuK0l8G9QWru2d-qfCV-78" value="&lt;b&gt;상품&lt;br&gt;(메뉴)&lt;/b&gt;" style="whiteSpace=wrap;html=1;aspect=fixed;" vertex="1" parent="1">
          <mxGeometry x="-30" y="320" width="70" height="70" as="geometry" />
        </mxCell>
        <mxCell id="JmuK0l8G9QWru2d-qfCV-90" style="rounded=0;orthogonalLoop=1;jettySize=auto;html=1;exitX=0.5;exitY=1;exitDx=0;exitDy=0;entryX=0.5;entryY=0;entryDx=0;entryDy=0;endArrow=none;endFill=0;startArrow=ERone;startFill=0;" edge="1" parent="1" source="JmuK0l8G9QWru2d-qfCV-79" target="JmuK0l8G9QWru2d-qfCV-78">
          <mxGeometry relative="1" as="geometry" />
        </mxCell>
        <mxCell id="JmuK0l8G9QWru2d-qfCV-79" value="포함" style="rhombus;whiteSpace=wrap;html=1;" vertex="1" parent="1">
          <mxGeometry x="-25" y="185" width="60" height="60" as="geometry" />
        </mxCell>
        <mxCell id="JmuK0l8G9QWru2d-qfCV-80" value="메뉴" style="ellipse;whiteSpace=wrap;html=1;" vertex="1" parent="1">
          <mxGeometry x="10" y="270" width="70" height="50" as="geometry" />
        </mxCell>
        <mxCell id="JmuK0l8G9QWru2d-qfCV-81" value="가격" style="ellipse;whiteSpace=wrap;html=1;" vertex="1" parent="1">
          <mxGeometry x="-90" y="385" width="70" height="50" as="geometry" />
        </mxCell>
        <mxCell id="JmuK0l8G9QWru2d-qfCV-82" value="타입" style="ellipse;whiteSpace=wrap;html=1;" vertex="1" parent="1">
          <mxGeometry x="20" y="390" width="70" height="50" as="geometry" />
        </mxCell>
        <mxCell id="JmuK0l8G9QWru2d-qfCV-109" style="rounded=0;orthogonalLoop=1;jettySize=auto;html=1;exitX=1;exitY=0.5;exitDx=0;exitDy=0;entryX=0;entryY=0.5;entryDx=0;entryDy=0;endArrow=none;endFill=0;startArrow=ERone;startFill=0;" edge="1" parent="1" source="JmuK0l8G9QWru2d-qfCV-107" target="JmuK0l8G9QWru2d-qfCV-72">
          <mxGeometry relative="1" as="geometry" />
        </mxCell>
        <mxCell id="JmuK0l8G9QWru2d-qfCV-107" value="포함" style="rhombus;whiteSpace=wrap;html=1;" vertex="1" parent="1">
          <mxGeometry x="-190" y="35" width="60" height="60" as="geometry" />
        </mxCell>
        <mxCell id="JmuK0l8G9QWru2d-qfCV-116" value="포인트조회" style="ellipse;whiteSpace=wrap;html=1;" vertex="1" parent="1">
          <mxGeometry x="-450" y="10" width="70" height="50" as="geometry" />
        </mxCell>
        <mxCell id="JmuK0l8G9QWru2d-qfCV-117" value="주문조회" style="ellipse;whiteSpace=wrap;html=1;" vertex="1" parent="1">
          <mxGeometry x="-450" y="60" width="70" height="50" as="geometry" />
        </mxCell>
      </root>
    </mxGraphModel>
  </diagram>
</mxfile>
